<svg width="87" height="28" fill="none" xmlns="http://www.w3.org/2000/svg">
  <g clip-path="url(#clip0)" fill="#239DFF">
    <path d="M33.454.01h-3.599c-.663 0-1.098.49-1.098 1.107v25.76c0 .616.435 1.11 1.098 1.11h3.599c.663 0 1.173-.494 1.173-1.11V1.116c0-.616-.51-1.107-1.173-1.107zM22.217 20.35c-.326-.688-1.263-.878-1.837-.36a8.66 8.66 0 01-5.814 2.212c-5.897 0-10.397-5.75-7.764-11.735.779-1.769 2.256-3.184 4.097-3.931 3.598-1.46 7.1-.629 9.421 1.421.581.513 1.513.331 1.84-.359l1.558-3.286c.25-.526.078-1.143-.402-1.491C19.665.169 14.68-.872 9.486.829 5.316 2.194 2.066 5.426.742 9.463-2.425 19.122 4.992 28 14.566 28a14.83 14.83 0 008.845-2.896c.463-.342.608-.953.366-1.465l-1.56-3.288zM86.258 9.463C84.935 5.426 81.683 2.194 77.514.83c-2.95-.966-5.833-1.047-8.442-.45-4.353.933-7.505 2.916-10.275 8.634l-5.559 11.59L43.802.666a1.165 1.165 0 00-1.055-.653L38.625.006c-.846 0-1.41.84-1.059 1.58l12.238 25.719c.189.398.602.666 1.056.667l.2.015h4.628a.885.885 0 00.275-.047c.318-.105.587-.323.726-.625 0 0 6.127-13.404 6.199-13.565 1.864-4.226 2.995-5.986 5.954-7.195a9.498 9.498 0 017.447.088 7.549 7.549 0 013.928 3.932 9.103 9.103 0 01.749 3.308c.067 4.583-3.778 8.32-8.531 8.32a8.661 8.661 0 01-5.814-2.213c-.575-.517-1.512-.328-1.838.361l-1.56 3.289a1.184 1.184 0 00.366 1.465A14.83 14.83 0 0072.435 28c9.574 0 16.99-8.878 13.823-18.537z"/>
  </g>
  <defs>
    <clipPath id="clip0">
      <path fill="#fff" d="M0 0h87v28H0z"/>
    </clipPath>
  </defs>
</svg>
