<svg enable-background="new 0 0 711.364 238.193" height="238.193" viewBox="0 0 711.364 238.193" width="711.364" xmlns="http://www.w3.org/2000/svg"><path d="m273.539.081h-29.424c-5.425 0-8.981 4.179-8.981 9.423v219.13c0 5.245 3.557 9.447 8.981 9.447h29.424c5.424 0 9.595-4.202 9.595-9.447v-219.13c0-5.244-4.171-9.423-9.595-9.423m-91.877 173.041c-2.671-5.858-10.327-7.473-15.027-3.072-12.446 11.658-29.136 18.819-47.538 18.819-48.218 0-85.012-48.909-63.477-99.824 6.364-15.049 18.441-27.092 33.495-33.446 29.421-12.422 58.048-5.346 77.036 12.095 4.749 4.361 12.365 2.813 15.04-3.054l12.744-27.956c2.039-4.475.631-9.722-3.292-12.686-29.854-22.561-70.606-31.418-113.081-16.946-34.09 11.614-60.672 39.102-71.497 73.451-25.894 82.163 34.749 157.69 113.032 157.69 27.245 0 52.286-9.214 72.327-24.633 3.786-2.913 4.973-8.113 2.991-12.462zm523.637-92.619c-10.825-34.349-37.407-61.837-71.497-73.451-24.128-8.221-47.698-8.905-69.033-3.835-35.585 7.946-61.358 24.817-84.01 73.453l-45.455 98.599-77.154-169.602a9.498 9.498 0 0 0 -8.626-5.56l-33.706-.053c-6.917-.012-11.523 7.142-8.653 13.436l100.064 218.79c1.542 3.383 4.917 5.67 8.634 5.671l1.637.131h37.842c.761 0 1.521-.157 2.243-.402 2.604-.888 4.799-2.745 5.938-5.312 0 0 50.098-114.027 50.681-115.402 15.244-35.948 24.495-50.922 48.691-61.206 18.307-7.779 39.955-8.727 60.885.754 14.57 6.599 26.028 18.656 32.122 33.442a80.07 80.07 0 0 1 6.122 28.143c.545 38.991-30.891 70.772-69.758 70.772-18.402 0-35.092-7.162-47.538-18.819-4.7-4.401-12.356-2.787-15.027 3.071l-12.754 27.977c-1.98 4.348-.795 9.547 2.993 12.461 20.04 15.418 45.081 24.633 72.326 24.633 78.284-.001 138.926-75.528 113.033-157.691" fill="#ffffff"/></svg>