<svg width="100" height="100" fill="none" xmlns="http://www.w3.org/2000/svg">
  <path d="M79.688 65.625H62.5V62.5h17.188a17.138 17.138 0 0017.187-17.188c0-8.906-6.094-15.624-14.063-15.624H81.25v-1.563c0-6.094-3.281-12.5-12.5-12.5h-2.5l-.469-.781C61.72 7.5 54.062 3.125 45.312 3.125c-12.968 0-23.437 10.469-23.437 23.438v1.562h-1.563A17.138 17.138 0 003.125 45.313 17.138 17.138 0 0020.313 62.5H37.5v3.125H20.312A20.272 20.272 0 010 45.312C0 34.688 8.281 25.782 18.75 25c.781-13.906 12.344-25 26.563-25C55 0 63.436 4.688 68.124 12.5h.625c8.906 0 15 5.469 15.625 14.063 9.063.78 15.625 8.593 15.625 18.75a20.272 20.272 0 01-20.313 20.312z" fill="#239DFF"/>
  <path d="M56.25 56.25h-3.125v15.625h3.125V56.25zM56.25 50h-3.125v3.125h3.125V50zM56.25 43.75h-3.125v3.125h3.125V43.75zM56.25 37.5h-3.125v3.125h3.125V37.5zM46.875 37.5H43.75v15.625h3.125V37.5zM46.875 62.5H43.75v3.125h3.125V62.5zM46.875 56.25H43.75v3.125h3.125V56.25zM46.875 68.75H43.75v3.125h3.125V68.75zM31.25 28.125h-3.125c0-10 7.969-18.75 17.188-18.75V12.5c-6.563 0-14.063 6.719-14.063 15.625zM50 100c-6.875 0-12.5-5.625-12.5-12.5S43.125 75 50 75s12.5 5.625 12.5 12.5S56.875 100 50 100zm0-21.875c-5.156 0-9.375 4.219-9.375 9.375s4.219 9.375 9.375 9.375 9.375-4.219 9.375-9.375-4.219-9.375-9.375-9.375z" fill="#239DFF"/>
  <path d="M50 93.75c-3.438 0-6.25-2.813-6.25-6.25 0-3.438 2.813-6.25 6.25-6.25 3.438 0 6.25 2.813 6.25 6.25 0 3.438-2.813 6.25-6.25 6.25zm0-9.375a3.134 3.134 0 00-3.125 3.125A3.134 3.134 0 0050 90.625a3.134 3.134 0 003.125-3.125A3.134 3.134 0 0050 84.375z" fill="#239DFF"/>
</svg>
