<svg width="164" height="60" fill="none" xmlns="http://www.w3.org/2000/svg">
  <g clip-path="url(#a)" fill="#718096">
    <path d="M55.842 36.269h-1.206v2.496h1.206v5.732h2.547v-5.732h4.94V36.27h-4.94v-3.535h7.644v-2.476H55.842v6.01ZM29.84 30.258h5.075c4.279 0 7.235 3.115 7.235 7.05v.04c0 3.934-2.956 7.149-7.235 7.149H29.84v-14.24Zm2.508 2.496V42.1h2.548c2.859 0 4.726-1.977 4.726-4.713v-.04c0-2.736-1.867-4.593-4.726-4.593h-2.548ZM79.238 30.258h2.411l6.477 9.646v-9.646h2.47v14.219h-2.392l-6.496-9.686v9.706h-2.47v-14.24ZM98.55 36.269c-2.936-.68-3.423-1.199-3.423-2.197v-.04c0-.979.934-1.638 2.315-1.638 1.283 0 2.567.48 3.909 1.458l.039.02 1.38-1.917.02-.04-.039-.02c-1.575-1.238-3.306-1.837-5.27-1.837-2.879 0-4.98 1.777-4.98 4.214v.04c0 2.636 1.712 3.534 4.843 4.273 2.743.62 3.229 1.179 3.229 2.137v.04c0 1.039-1.012 1.738-2.528 1.738-1.654 0-3.054-.56-4.532-1.838l-.039-.02L91.9 42.48l.039.02a9.035 9.035 0 0 0 6.048 2.276c3.17 0 5.212-1.677 5.212-4.274v-.04c.02-2.556-1.847-3.534-4.648-4.193ZM77.527 32.754v-2.496h-9.783l.02 6.01h-1.09l-.02 2.517h1.09v5.712h9.783V41.84h-7.274v-3.056h4.862V36.27h-4.843l-.02-3.515h7.275ZM115.003 32.754v-2.496h-9.782l.02 6.01h-1.09v2.517h1.07v5.712h9.782V41.84h-7.254v-3.056h4.862V36.27h-4.862v-3.515h7.254ZM54.13 32.754v-2.496h-9.782v6.01h-1.07l-.02 2.517h1.09v5.712h9.782V41.84h-7.274v-3.056h4.863V36.27h-4.843l-.02-3.515h7.274ZM116.559 42.78c.467 0 .837.379.837.858 0 .48-.37.859-.837.859a.842.842 0 0 1-.836-.859c0-.48.37-.859.836-.859ZM140.286 36.269l-2.392 3.535-2.373-3.535h-1.4v8.228h1.42l.02-5.612 2.314 3.475h.058l2.315-3.475v5.612h1.439v-8.228h-1.401ZM129.084 36.229c-2.334 0-4.143 1.817-4.143 4.154 0 2.316 1.829 4.134 4.143 4.134 2.334 0 4.143-1.818 4.143-4.134 0-2.337-1.829-4.154-4.143-4.154Zm2.587 4.154c0 1.458-1.187 2.696-2.587 2.696-1.4 0-2.587-1.238-2.587-2.696 0-1.458 1.187-2.696 2.587-2.696 1.4 0 2.587 1.238 2.587 2.696ZM123.152 41.96c-.506.68-1.264 1.079-2.061 1.079-1.401 0-2.587-1.218-2.587-2.676 0-1.458 1.186-2.676 2.587-2.676.816 0 1.614.42 2.1 1.138l.02.02 1.186-.959-.019-.02a4.12 4.12 0 0 0-3.287-1.617c-2.276 0-3.987 1.777-3.987 4.134 0 2.356 1.711 4.154 3.987 4.154 1.303 0 2.509-.58 3.287-1.618l.019-.02-1.206-.938h-.039Z"/>
    <path d="M32.348 18.055V15h-2.509v3.055c-6.282.6-11.28 5.752-11.863 12.203H15v2.476h2.976c.486 5.572 4.278 10.185 9.335 11.743V41.6c-3.579-1.418-6.224-4.813-6.671-8.867h1.984v-2.477H20.64c.564-4.952 4.395-8.887 9.2-9.466v2.037h2.508v-2.037c4.395.54 7.974 3.875 8.985 8.228h2.703c-1.07-5.851-5.834-10.384-11.688-10.964ZM145.189 35.506h-.747v2.08h-.599v-2.08h-.733v-.475h2.081v.475h-.002ZM146.231 35.03l.557 1.778.554-1.777h.79v2.556h-.601v-.597l.058-1.223-.601 1.82h-.396l-.603-1.82.058 1.225v.597h-.599v-2.556h.783v-.002Z"/>
  </g>
  <defs>
    <clipPath id="a">
      <path fill="#fff" transform="translate(15 15)" d="M0 0h134v30H0z"/>
    </clipPath>
  </defs>
</svg>
