<svg width="108" height="100" fill="none" xmlns="http://www.w3.org/2000/svg">
  <path d="M39.15 65.424c-2.362-3.22-3.712-7.119-3.712-11.187 0-10.339 8.268-18.644 18.562-18.644s18.563 8.305 18.563 18.644c0 4.068-1.35 7.966-3.713 11.187l-2.7-2.034c2.025-2.712 3.037-5.763 3.037-9.153 0-8.474-6.75-15.254-15.187-15.254-8.438 0-15.188 6.78-15.188 15.254 0 3.39 1.013 6.441 3.038 9.153l-2.7 2.034z" fill="#239DFF"/>
  <path d="M91.8 93.22H16.2l-.506-.508C5.737 82.712 0 68.644 0 54.237 0 24.407 24.3 0 54 0s54 24.407 54 54.237c0 14.407-5.737 28.475-15.694 38.475l-.506.508zm-74.25-3.39h72.9c9.112-9.491 14.175-22.372 14.175-35.593C104.625 26.271 81.844 3.39 54 3.39S3.375 26.27 3.375 54.237c0 13.22 5.231 26.102 14.175 35.593z" fill="#239DFF"/>
  <path d="M55.688 79.661h-3.376v3.39h3.376v-3.39zM48.938 79.661h-3.376v3.39h3.376v-3.39zM62.438 79.661h-3.376v3.39h3.376v-3.39zM69.188 79.661h-3.376v3.39h3.376v-3.39zM42.188 79.661h-3.376v3.39h3.376v-3.39zM55.688 11.864h-3.376v5.085h3.376v-5.085zM16.875 52.542h-5.063v3.39h5.063v-3.39zM96.188 52.542h-5.063v3.39h5.063v-3.39zM24.843 22.556l-2.386 2.397 5.011 5.034 2.387-2.397-5.012-5.034zM83.156 22.556l-5.012 5.034 2.386 2.397 5.012-5.034-2.386-2.397z" fill="#239DFF"/>
  <path d="M18.9 80.678c-5.737-7.627-8.775-16.78-8.775-26.44C10.125 30 29.869 10.168 54 10.168S97.875 30 97.875 54.237c0 9.661-3.037 18.814-8.775 26.44l-2.7-2.033c5.231-7.119 8.1-15.593 8.1-24.407C94.5 31.864 76.275 13.56 54 13.56S13.5 31.864 13.5 54.237c0 8.814 2.869 17.288 8.1 24.407l-2.7 2.034z" fill="#239DFF"/>
  <path d="M72.971 32.785L56.147 49.684l2.386 2.397 16.825-16.899-2.387-2.397z" fill="#239DFF"/>
  <path d="M54 61.017c-3.712 0-6.75-3.05-6.75-6.78 0-3.729 3.038-6.78 6.75-6.78s6.75 3.051 6.75 6.78c0 3.73-3.038 6.78-6.75 6.78zm0-10.17c-1.856 0-3.375 1.526-3.375 3.39 0 1.865 1.519 3.39 3.375 3.39s3.375-1.525 3.375-3.39c0-1.864-1.519-3.39-3.375-3.39zM87.75 96.61h-67.5V100h67.5v-3.39z" fill="#239DFF"/>
</svg>
