<svg width="190" height="60" fill="none" xmlns="http://www.w3.org/2000/svg">
  <path d="M26.055 19.852v19.805h9.396V27.773h5.37v11.883h9.394V19.852h-24.16ZM60.953 19.855h4.059l9.363 12.243V19.855h4.34v19.799h-3.74l-9.68-12.5v12.5h-4.341v-19.8h-.001Zm19.873 12.357c0 4.608 3.398 7.78 7.998 7.78 2.767 0 4.823-1.068 6.246-2.81l-2.48-2.163c-1.199 1.097-2.255 1.547-3.71 1.547-1.945 0-3.312-1.011-3.741-2.95h10.648c.034-.391.06-.788.06-1.12 0-4.271-2.342-8.175-7.45-8.175-4.455 0-7.57 3.539-7.57 7.831v.06h-.001Zm4.253-1.266c.341-1.934 1.513-3.203 3.317-3.203 1.823 0 2.968 1.29 3.223 3.203h-6.54Zm13.476 4.437c0 3.482 1.797 4.522 4.449 4.522 1.456 0 2.518-.337 3.431-.871v-3.43a4.427 4.427 0 0 1-2.145.541c-.967 0-1.397-.48-1.397-1.464v-6.432h3.599V24.6h-3.6v-3.847h-4.337V24.6h-1.828v3.65h1.826v7.133h.002Zm30.731 8.765h4.336v-6.46c1.028 1.207 2.456 2.247 4.768 2.247 3.63 0 6.97-2.752 6.97-7.783V32.1c0-5.028-3.397-7.778-6.97-7.778-2.254 0-3.711 1.035-4.768 2.44V24.6h-4.336v19.548Zm11.728-11.996c0 2.529-1.711 4.16-3.738 4.16s-3.71-1.659-3.71-4.16V32.1c0-2.5 1.685-4.156 3.71-4.156 2.027 0 3.738 1.656 3.738 4.156v.053Zm6.11 11.996h4.339v-6.46c1.027 1.207 2.456 2.247 4.771 2.247 3.623 0 6.964-2.752 6.964-7.783V32.1c0-5.028-3.396-7.778-6.964-7.778-2.256 0-3.714 1.035-4.771 2.44V24.6h-4.339v19.548Zm11.736-11.996c0 2.529-1.717 4.16-3.744 4.16-2.021 0-3.71-1.659-3.71-4.16V32.1c0-2.5 1.689-4.156 3.71-4.156 2.027 0 3.744 1.656 3.744 4.156v.053Zm-51.314 7.503h4.481l1.828-4.414h7.924l1.84 4.414h4.58l-8.351-19.803h-3.953l-8.349 19.802Zm7.614-8.226 2.658-6.383 2.654 6.383h-5.312Z" fill="#718096"/>
</svg>
