<svg width="160" height="60" fill="none" xmlns="http://www.w3.org/2000/svg">
  <path d="M53.534 25.346h5.23v2.864c1.188-2.148 2.613-3.103 4.752-3.103.476 0 .952 0 1.189.24v4.772c-3.327-.477-5.704 1.194-5.704 5.013v8.115h-5.466v-17.9h-.001Zm57.993 17.662h5.467V32.983c0-2.148 1.189-3.819 3.327-3.819 1.902 0 2.853 1.433 2.853 3.103V42.77h5.466V31.074c0-3.819-2.377-6.683-6.179-6.683-2.377 0-4.041.955-5.467 2.864v-2.387h-5.229v18.14h-.238Zm-89.604 0h5.705l6.18-17.9H28.34l-2.377 8.114c-.475 1.67-.95 4.774-.95 4.774s-.476-3.103-.951-4.774l-2.377-8.115h-5.942l6.18 17.901Zm52.765 0h15.21v-4.296h-9.031c.712-.716 1.901-1.432 2.852-2.626l5.943-6.683v-4.296H74.924v4.535h8.557c-.476.477-1.189.955-2.615 2.387l-6.18 6.921v4.058h.002Zm29.471-8.83c0-3.343-1.426-5.49-4.04-5.49s-4.041 2.147-4.041 5.49c0 3.34 1.426 5.49 4.041 5.49 2.614 0 4.04-2.15 4.04-5.49Zm-13.31 0c0-5.252 3.804-9.31 9.507-9.31 5.705 0 9.508 4.058 9.508 9.31 0 5.25-3.803 9.546-9.508 9.546-5.704 0-9.506-4.296-9.506-9.547Zm-44.683-1.91c-.238-2.149-1.426-3.58-3.565-3.58-2.377 0-3.327 1.431-3.803 3.58h7.368Zm-12.596 1.91c0-5.252 3.802-9.31 9.031-9.31 2.377 0 4.516.716 5.942 2.148 2.139 1.91 3.09 5.013 3.09 8.832H38.798c.238 2.386 1.663 4.057 4.04 4.057 1.427 0 2.614-.716 3.091-1.91h5.228c-.237 1.433-1.425 3.104-2.852 4.058a9.897 9.897 0 0 1-5.466 1.671c-5.705 0-9.27-4.296-9.27-9.547Zm33.274-8.832h5.467v17.9h-5.466v-17.9h-.001Zm0-7.16h5.467v4.773h-5.466v-4.774l-.001.001ZM129.115 25.346h2.615l2.852 5.967 6.893-15.037h2.852l-8.319 17.9h-2.852l-4.041-8.83Z" fill="#718096"/>
</svg>
